<?xml version="1.0" encoding="utf-8"?>
<!-- Generator: Adobe Illustrator 23.1.1, SVG Export Plug-In . SVG Version: 6.00 Build 0)  -->
<svg version="1.1" id="Laag_1" xmlns="http://www.w3.org/2000/svg" xmlns:xlink="http://www.w3.org/1999/xlink" x="0px" y="0px"
	 viewBox="0 0 113.39 113.39" style="enable-background:new 0 0 113.39 113.39;" xml:space="preserve">
<style type="text/css">
	.st0{fill:#FFFFFF;}
</style>
<circle cx="56.71" cy="56.72" r="52.29"/>
<g id="icons">
	<g id="main">
		<path class="st0" d="M81.65,56.32H69.11c-3.45,0-6.27,2.64-6.27,5.86v17.59c0,3.23,2.82,5.86,6.27,5.86h12.53
			c3.45,0,6.27-2.64,6.27-5.86V62.18C87.91,58.96,85.09,56.32,81.65,56.32z"/>
		<path class="st0" d="M44.04,27H31.51c-3.45,0-6.27,2.64-6.27,5.86v17.59c0,3.23,2.82,5.86,6.27,5.86h12.53
			c3.45,0,6.27-2.64,6.27-5.86V32.86C50.31,29.64,47.49,27,44.04,27z"/>
		<path class="st0" d="M81.65,27H69.11c-3.45,0-6.27,2.64-6.27,5.86v5.86c0,3.23,2.82,5.86,6.27,5.86h12.53
			c3.45,0,6.27-2.64,6.27-5.86v-5.86C87.91,29.64,85.09,27,81.65,27z"/>
		<path class="st0" d="M44.04,68.05H31.51c-3.45,0-6.27,2.64-6.27,5.86v5.86c0,3.23,2.82,5.86,6.27,5.86h12.53
			c3.45,0,6.27-2.64,6.27-5.86v-5.86C50.31,70.69,47.49,68.05,44.04,68.05z"/>
	</g>
</g>
</svg>
