<svg id="Laag_1" data-name="Laag 1" xmlns="http://www.w3.org/2000/svg" width="39.86mm" height="39.86mm" viewBox="0 0 113 113"><defs><style>.cls-1{fill:#fff;}.cls-2{fill:#212529;}</style></defs><title>mail</title><circle class="cls-1" cx="56.5" cy="56.5" r="56.5"/><path class="cls-2" d="M54.46,57a3,3,0,0,0,3.95,0L76.1,41.82a4.93,4.93,0,0,0-2.69-.8h-34a5,5,0,0,0-2.69.8Z"/><path class="cls-2" d="M78.41,46a4.94,4.94,0,0,0-.87-2.81L61.47,57,77.61,70.7a4.92,4.92,0,0,0,.8-2.68Z"/><path class="cls-2" d="M59.93,58.32l-.27.24a5,5,0,0,1-6.5,0l-.27-.24L36.6,72.15a5,5,0,0,0,2.81.87h34a5,5,0,0,0,2.81-.87Z"/><path class="cls-2" d="M35.28,43.21A5,5,0,0,0,34.41,46V68a4.92,4.92,0,0,0,.8,2.68L51.35,57Z"/></svg>