<svg id="Laag_1" data-name="Laag 1" xmlns="http://www.w3.org/2000/svg" width="39.86mm" height="39.86mm" viewBox="0 0 113 113"><defs><style>.cls-1{fill:#fff;}.cls-2{fill:#212529;}</style></defs><title>social</title><circle class="cls-1" cx="56.5" cy="56.5" r="56.5"/><path class="cls-2" d="M72.49,34.26a12.48,12.48,0,0,0-12,9.12H49.06A11.07,11.07,0,0,0,46.4,39a11,11,0,1,0-3.16,17.72l6,10.41a11.21,11.21,0,0,0-1.75,1.42,11,11,0,1,0,15.52,0,11.21,11.21,0,0,0-1.75-1.42l5.37-9.3a12.51,12.51,0,1,0,5.85-23.58ZM33.21,52.11A5.68,5.68,0,0,1,36.9,48.7a3.85,3.85,0,1,1,3.47,0,5.66,5.66,0,0,1,3.69,3.41ZM49.83,81.66a5.7,5.7,0,0,1,3.69-3.41,3.85,3.85,0,1,1,3.47,0,5.66,5.66,0,0,1,3.69,3.41Zm8.64-15.84a11.2,11.2,0,0,0-6.42,0L45.83,55.05l.57-.52a11,11,0,0,0,3.19-8.07H60a12.5,12.5,0,0,0,3.64,9.16l.48.43ZM79.16,53.44a9.42,9.42,0,0,1-13.34,0,9.43,9.43,0,1,1,13.34,0Z"/><path class="cls-2" d="M74.23,48.7a3.84,3.84,0,1,0-3.48,0,5.67,5.67,0,0,0-3.68,3.41H77.92A5.7,5.7,0,0,0,74.23,48.7Z"/></svg>