<svg id="Laag_1" data-name="Laag 1" xmlns="http://www.w3.org/2000/svg" width="39.86mm" height="39.86mm" viewBox="0 0 113 113"><defs><style>.cls-1{fill:#fff;}.cls-2{fill:#212529;}</style></defs><title>telefoon</title><circle class="cls-1" cx="56.5" cy="56.5" r="56.5"/><path class="cls-2" d="M46.36,86.39a6.27,6.27,0,0,1-3.23-1.8,5.66,5.66,0,0,1-1.52-3.87V29.64a5.53,5.53,0,0,1,4.48-5.53,1.53,1.53,0,0,0,.27-.11H69l.37.14a5.57,5.57,0,0,1,4.26,5.48v51a5.69,5.69,0,0,1-4.54,5.7,1,1,0,0,0-.21.1Zm-2.89-11.5H71.78V35.36H43.47Zm14.16,7.63a2.8,2.8,0,0,0,2.83-2.78v0a2.83,2.83,0,1,0-2.86,2.82Zm0-52.9H54.12c-.78,0-1.2.36-1.19,1a1,1,0,0,0,1,1h7.21c.78,0,1.2-.36,1.19-1a1,1,0,0,0-1-1l-.15,0Z"/></svg>